<svg width="499" height="832" viewBox="0 0 499 832" fill="none" xmlns="http://www.w3.org/2000/svg">
<rect x="164.547" y="767.281" width="162.861" height="64.0123" rx="14.8056" fill="url(#paint0_linear_2263_263)"/>
<rect x="228.562" y="728.086" width="130.202" height="65.3187" rx="24.3856" fill="url(#paint1_linear_2263_263)"/>
<path d="M123.18 154.009C123.18 145.082 125.982 136.414 131.149 129.367L214.679 15.4838C229.696 -4.98465 258.796 -5.1975 274.062 15.0699L360.121 129.248C365.478 136.355 368.399 145.2 368.399 154.305V729.608C368.399 749.403 337.773 765.413 299.899 765.413H191.692C153.805 765.413 123.192 749.415 123.192 729.608V154.009H123.18Z" fill="url(#paint2_linear_2263_263)"/>
<path d="M37.2578 519.507C37.2578 514.955 37.9791 510.532 39.3271 506.938L60.978 448.843C64.8683 438.402 72.4124 438.296 76.3737 448.63L98.6867 506.878C100.082 510.509 100.839 515.014 100.839 519.661V813.148C100.839 823.246 92.9045 831.417 83.0782 831.417H55.0302C45.204 831.417 37.2696 823.258 37.2696 813.148V519.507H37.2578Z" fill="url(#paint3_linear_2263_263)"/>
<path d="M393.414 517.077C393.414 512.525 394.135 508.103 395.483 504.508L417.134 446.413C421.025 435.972 428.569 435.866 432.53 446.201L454.843 504.449C456.238 508.079 456.995 512.584 456.995 517.231V810.718C456.995 820.816 449.061 828.987 439.234 828.987H411.186C401.36 828.987 393.426 820.828 393.426 810.718V517.077H393.414Z" fill="url(#paint4_linear_2263_263)"/>
<g filter="url(#filter0_d_2263_263)">
<path d="M186.519 332.539C186.212 392.147 177.024 440.261 168.569 473.358C152.287 537.141 141.006 581.081 103.64 619.712C72.4234 651.969 52.6999 649.876 30.4696 681.827C4.68012 718.991 3.01284 762.719 5.62608 793.723L146.658 799.151C167.009 799.99 183.93 783.696 184.024 763.452L186.531 332.539H186.519Z" fill="#DDC2DE"/>
<path d="M311.937 332.539C312.256 392.147 321.432 440.261 329.886 473.358C346.169 537.141 357.45 581.081 394.815 619.712C426.032 651.969 445.756 649.876 467.986 681.827C493.776 718.991 495.443 762.624 492.83 793.735L351.797 799.162C331.447 800.002 314.526 783.708 314.432 763.464L311.925 332.551L311.937 332.539Z" fill="url(#paint5_linear_2263_263)"/>
</g>
<g filter="url(#filter1_d_2263_263)">
<path d="M296.729 810.375H195.474C178.506 810.375 164.742 793.454 164.742 772.572V314.285C164.742 305.014 167.509 296.063 172.523 289.134L220.034 223.519C231.823 207.237 252.339 206.563 264.814 222.065L318.557 288.827C324.256 295.91 327.449 305.464 327.449 315.432V772.56C327.449 793.442 313.697 810.363 296.717 810.363L296.729 810.375Z" fill="url(#paint6_linear_2263_263)"/>
</g>
<defs>
<filter id="filter0_d_2263_263" x="-0.000358105" y="332.539" width="498.457" height="476.116" filterUnits="userSpaceOnUse" color-interpolation-filters="sRGB">
<feFlood flood-opacity="0" result="BackgroundImageFix"/>
<feColorMatrix in="SourceAlpha" type="matrix" values="0 0 0 0 0 0 0 0 0 0 0 0 0 0 0 0 0 0 127 0" result="hardAlpha"/>
<feOffset dy="4.72985"/>
<feGaussianBlur stdDeviation="2.36493"/>
<feComposite in2="hardAlpha" operator="out"/>
<feColorMatrix type="matrix" values="0 0 0 0 0 0 0 0 0 0 0 0 0 0 0 0 0 0 0.25 0"/>
<feBlend mode="normal" in2="BackgroundImageFix" result="effect1_dropShadow_2263_263"/>
<feBlend mode="normal" in="SourceGraphic" in2="effect1_dropShadow_2263_263" result="shape"/>
</filter>
<filter id="filter1_d_2263_263" x="160.012" y="210.859" width="172.167" height="608.975" filterUnits="userSpaceOnUse" color-interpolation-filters="sRGB">
<feFlood flood-opacity="0" result="BackgroundImageFix"/>
<feColorMatrix in="SourceAlpha" type="matrix" values="0 0 0 0 0 0 0 0 0 0 0 0 0 0 0 0 0 0 127 0" result="hardAlpha"/>
<feOffset dy="4.72985"/>
<feGaussianBlur stdDeviation="2.36493"/>
<feComposite in2="hardAlpha" operator="out"/>
<feColorMatrix type="matrix" values="0 0 0 0 0 0 0 0 0 0 0 0 0 0 0 0 0 0 0.25 0"/>
<feBlend mode="normal" in2="BackgroundImageFix" result="effect1_dropShadow_2263_263"/>
<feBlend mode="normal" in="SourceGraphic" in2="effect1_dropShadow_2263_263" result="shape"/>
</filter>
<linearGradient id="paint0_linear_2263_263" x1="362.321" y1="799.286" x2="181.405" y2="743.935" gradientUnits="userSpaceOnUse">
<stop stop-color="#0D0714"/>
<stop offset="1" stop-color="#894BCE"/>
</linearGradient>
<linearGradient id="paint1_linear_2263_263" x1="386.676" y1="760.744" x2="237.096" y2="724.889" gradientUnits="userSpaceOnUse">
<stop stop-color="#0D0714"/>
<stop offset="1" stop-color="#894BCE"/>
</linearGradient>
<linearGradient id="paint2_linear_2263_263" x1="420.967" y1="382.688" x2="123.507" y2="371.228" gradientUnits="userSpaceOnUse">
<stop stop-color="#0D0714"/>
<stop offset="1" stop-color="#894BCE"/>
</linearGradient>
<linearGradient id="paint3_linear_2263_263" x1="114.469" y1="636.172" x2="37.2578" y2="634.66" gradientUnits="userSpaceOnUse">
<stop stop-color="#0D0714"/>
<stop offset="1" stop-color="#894BCE"/>
</linearGradient>
<linearGradient id="paint4_linear_2263_263" x1="470.625" y1="633.742" x2="393.414" y2="632.23" gradientUnits="userSpaceOnUse">
<stop stop-color="#0D0714"/>
<stop offset="1" stop-color="#894BCE"/>
</linearGradient>
<linearGradient id="paint5_linear_2263_263" x1="310.565" y1="622.136" x2="492.357" y2="505.332" gradientUnits="userSpaceOnUse">
<stop stop-color="#704C8B"/>
<stop offset="0.39" stop-color="#4D345F"/>
<stop offset="1" stop-color="#1D1424"/>
</linearGradient>
<linearGradient id="paint6_linear_2263_263" x1="164.742" y1="510.621" x2="327.449" y2="510.621" gradientUnits="userSpaceOnUse">
<stop stop-color="#DDC2DE"/>
<stop offset="0.65" stop-color="#704C8B"/>
</linearGradient>
</defs>
</svg>
