<?xml version="1.0" encoding="UTF-8"?>
<svg id="Layer_1" xmlns="http://www.w3.org/2000/svg" xmlns:xlink="http://www.w3.org/1999/xlink" version="1.1" viewBox="0 0 2000 2000">
  <!-- Generator: Adobe Illustrator 30.0.0, SVG Export Plug-In . SVG Version: 2.1.1 Build 123)  -->
  <defs>
    <style>
      .st0, .st1, .st2, .st3 {
        fill: none;
      }

      .st1 {
        stroke-miterlimit: 10;
      }

      .st1, .st2, .st3 {
        stroke: #fff;
        stroke-width: 2.8px;
      }

      .st4 {
        clip-path: url(#clippath-1);
      }

      .st5 {
        clip-path: url(#clippath-3);
      }

      .st6 {
        clip-path: url(#clippath-2);
      }

      .st7 {
        fill: #fff;
        font-family: VAGRoundedStd-Bold, 'VAG Rounded Std';
        font-size: 66.3px;
        font-weight: 700;
      }

      .st3 {
        stroke-opacity: .7;
      }

      .st8 {
        clip-path: url(#clippath);
      }
    </style>
    <clipPath id="clippath">
      <path class="st0" d="M1816.5,667c20.8-8.4,44.6,1.6,52.1,22.8,56.5,160.2,67.4,333.1,31.5,499.1-4.7,21.9-27.1,34.9-48.8,29.2l-141.3-37.3c-21.7-5.7-34.6-28-30.1-50,23.8-118.5,16.1-241.1-22.4-355.7-7.2-21.3,2.8-45,23.6-53.4l135.5-54.7h0Z"/>
    </clipPath>
    <clipPath id="clippath-1">
      <path class="st0" d="M1358,193.4c9.2-20.5,33.3-29.8,53.3-19.7,151.8,76.3,279.5,193.2,368.8,337.8,11.8,19.1,4.7,43.9-14.9,54.9l-127.6,71.1c-19.6,10.9-44.3,3.8-56.4-15.1-65-101.9-155.7-184.9-262.8-240.7-20-10.4-29.2-34.4-20-54.9l59.7-133.4h-.1Z"/>
    </clipPath>
    <clipPath id="clippath-2">
      <path class="st0" d="M1241.9,111.1c21.6,6.3,32.9,29.5,25.7,50.7l-47.1,138.4c-7.2,21.3-30.3,32.5-52,26.6-116.5-32-239.4-32.9-356.4-2.5-21.8,5.7-44.7-5.9-51.6-27.3l-45.1-139c-6.9-21.4,4.8-44.4,26.4-50.4,163.8-45.2,336.9-43.9,500.1,3.5Z"/>
    </clipPath>
    <clipPath id="clippath-3">
      <path class="st0" d="M105,1205.7c-22.2,4.5-44-9.9-47.5-32.3-26-168-4.9-339.9,61-496.6,8.8-20.9,33.4-29.6,53.9-19.9l132,62.6c20.5,9.7,29.1,34.2,20.6,55.2-45.2,112-60.2,233.9-43.4,353.5,3.1,22.5-11.1,44.1-33.4,48.6l-143.3,28.8h0Z"/>
    </clipPath>
  </defs>
  <g id="Filter_x5F_Leren">
    <g>
      <g class="st8">
        <g>
          <polygon class="st2" points="1589.7 598.7 1590.5 598.7 1589.7 599.5 1589.7 598.7"/>
          <polygon class="st2" points="1588.1 597.1 1587.3 597.1 1588.1 596.3 1588.1 597.1"/>
        </g>
      </g>
      <path class="st2" d="M1816.5,667c20.8-8.4,44.6,1.6,52.1,22.8,56.5,160.2,67.4,333.1,31.5,499.1-4.7,21.9-27.1,34.9-48.8,29.2l-141.3-37.3c-21.7-5.7-34.6-28-30.1-50,23.8-118.5,16.1-241.1-22.4-355.7-7.2-21.3,2.8-45,23.6-53.4l135.5-54.7h0Z"/>
    </g>
  </g>
  <g id="Filter_x5F_Digitaal">
    <g>
      <g class="st4">
        <g>
          <polygon class="st2" points="1229.4 104.3 1230.2 104.3 1229.4 105.1 1229.4 104.3"/>
          <polygon class="st2" points="1227.8 102.7 1226.9 102.7 1227.8 101.8 1227.8 102.7"/>
        </g>
      </g>
      <path class="st2" d="M1358,193.4c9.2-20.5,33.3-29.8,53.3-19.7,151.8,76.3,279.5,193.2,368.8,337.8,11.8,19.1,4.7,43.9-14.9,54.9l-127.6,71.1c-19.6,10.9-44.3,3.8-56.4-15.1-65-101.9-155.7-184.9-262.8-240.7-20-10.4-29.2-34.4-20-54.9l59.7-133.4h-.1Z"/>
    </g>
  </g>
  <g id="Filtere_x5F_Ecologisch">
    <g>
      <g class="st6">
        <g>
          <polygon class="st2" points="648.1 9.3 648.9 9.3 648.1 10.1 648.1 9.3"/>
          <polygon class="st2" points="646.5 7.6 645.6 7.6 646.5 6.8 646.5 7.6"/>
        </g>
      </g>
      <path class="st2" d="M1241.9,111.1c21.6,6.3,32.9,29.5,25.7,50.7l-47.1,138.4c-7.2,21.3-30.3,32.5-52,26.6-116.5-32-239.4-32.9-356.4-2.5-21.8,5.7-44.7-5.9-51.6-27.3l-45.1-139c-6.9-21.4,4.8-44.4,26.4-50.4,163.8-45.2,336.9-43.9,500.1,3.5h0Z"/>
    </g>
  </g>
  <g id="Filter_x5F_Gezond">
    <g>
      <g class="st5">
        <g>
          <polygon class="st1" points="14.6 620.8 15.5 620.8 14.6 621.7 14.6 620.8"/>
          <polygon class="st1" points="13 619.2 12.2 619.2 13 618.4 13 619.2"/>
        </g>
      </g>
      <path class="st1" d="M105,1205.7c-22.2,4.5-44-9.9-47.5-32.3-26-168-4.9-339.9,61-496.6,8.8-20.9,33.4-29.6,53.9-19.9l132,62.6c20.5,9.7,29.1,34.2,20.6,55.2-45.2,112-60.2,233.9-43.4,353.5,3.1,22.5-11.1,44.1-33.4,48.6l-143.3,28.8h0Z"/>
    </g>
  </g>
  <g id="Filter_x5F_Social">
    <path class="st3" d="M212.3,582.9c-19.9-11-27.1-36-15.3-55.4,88.9-144.9,216.3-262.3,368-339,20.2-10.2,44.6-1,54,19.7l60.1,133.2c9.3,20.7,0,44.9-20,55.5-106.9,56.1-197.3,139.4-261.9,241.4-12.2,19.2-37.1,26.4-56.9,15.4l-127.9-70.8h0Z"/>
  </g>
  <text class="st7" transform="translate(187.5 1054.7) rotate(-90)"><tspan x="0" y="0">Gezond</tspan></text>
  <text class="st7" transform="translate(842.4 212.8)"><tspan x="0" y="0">Ecologisch</tspan></text>
  <text class="st7" transform="translate(375.4 519.8) rotate(-45)"><tspan x="0" y="0">Sociaal</tspan></text>
  <text class="st7" transform="translate(1461.8 327.6) rotate(45)"><tspan x="0" y="0">Digitaal</tspan></text>
  <text class="st7" transform="translate(1788 862.5) rotate(90)"><tspan x="0" y="0">Leren</tspan></text>
</svg>