<?xml version="1.0" encoding="UTF-8"?>
<svg xmlns="http://www.w3.org/2000/svg" xmlns:xlink="http://www.w3.org/1999/xlink" version="1.1" viewBox="0 0 2000 2000">
  <!-- Generator: Adobe Illustrator 30.0.0, SVG Export Plug-In . SVG Version: 2.1.1 Build 123)  -->
  <defs>
    <style>
      .st0, .st1, .st2, .st3, .st4, .st5, .st6, .st7 {
        fill: none;
      }

      .st8 {
        fill: url(#linear-gradient2);
      }

      .st9 {
        fill: url(#linear-gradient3);
      }

      .st10 {
        fill: url(#linear-gradient4);
      }

      .st1, .st11, .st2, .st12, .st3, .st4, .st5, .st6, .st7 {
        stroke: #fff;
      }

      .st1, .st2, .st7 {
        stroke-width: 2.8px;
      }

      .st1, .st12 {
        stroke-miterlimit: 10;
      }

      .st13 {
        fill: url(#linear-gradient);
      }

      .st11 {
        fill: url(#linear-gradient1);
        stroke-width: 2.8px;
      }

      .st14, .st15 {
        isolation: isolate;
      }

      .st16 {
        clip-path: url(#clippath-7);
      }

      .st17 {
        clip-path: url(#clippath-6);
      }

      .st18 {
        clip-path: url(#clippath-9);
      }

      .st19 {
        clip-path: url(#clippath-8);
      }

      .st20, .st15 {
        fill: #fff;
      }

      .st15 {
        font-family: VAGRoundedStd-Bold, 'VAG Rounded Std';
        font-size: 66.3px;
        font-weight: 700;
      }

      .st3 {
        stroke-width: 4.1px;
      }

      .st3, .st4, .st5, .st6, .st7 {
        stroke-opacity: .7;
      }

      .st4 {
        stroke-width: 4.1px;
      }

      .st5 {
        stroke-width: 4.1px;
      }

      .st6 {
        stroke-width: 4.1px;
      }

      .st21 {
        opacity: 0;
      }
    </style>
    <linearGradient id="linear-gradient" x1="-1.9" y1="1164.1" x2="226.3" y2="1124.7" gradientTransform="translate(79 2077.5) scale(1 -1)" gradientUnits="userSpaceOnUse">
      <stop offset=".2" stop-color="#e38eae"/>
      <stop offset="1" stop-color="#e38eae" stop-opacity=".5"/>
    </linearGradient>
    <linearGradient id="linear-gradient1" x1="308.7" y1="1747.4" x2="446.4" y2="1577.4" gradientTransform="translate(79 2077.5) scale(1 -1)" gradientUnits="userSpaceOnUse">
      <stop offset=".1" stop-color="#806fd0"/>
      <stop offset="1" stop-color="#806fd0" stop-opacity=".5"/>
    </linearGradient>
    <linearGradient id="linear-gradient2" x1="935.3" y1="1999.1" x2="932.4" y2="1776.3" gradientTransform="translate(79 2077.5) scale(1 -1)" gradientUnits="userSpaceOnUse">
      <stop offset=".2" stop-color="#44a69d"/>
      <stop offset="1" stop-color="#44a69d" stop-opacity=".5"/>
    </linearGradient>
    <clipPath id="clippath">
      <path class="st0" d="M1381.5,182.4c9.4-20.9,34-30.4,54.5-20.1,153.5,77.1,282.5,195.3,372.8,341.4,12,19.5,4.8,44.8-15.2,56l-129,71.9c-20,11.2-45.2,3.9-57.5-15.4-65.6-102.8-157.2-186.7-265.4-243-20.3-10.6-29.8-35-20.4-56l60.3-134.8Z"/>
    </clipPath>
    <linearGradient id="linear-gradient3" x1="1560.7" y1="1763.4" x2="1410.6" y2="1600.5" gradientTransform="translate(79 2077.5) scale(1 -1)" gradientUnits="userSpaceOnUse">
      <stop offset=".1" stop-color="#78dbf3"/>
      <stop offset="1" stop-color="#78dbf3" stop-opacity=".5"/>
    </linearGradient>
    <clipPath id="clippath-3">
      <path class="st0" d="M1843.9,649c21.6-8.7,46.2,1.7,54,23.6,58,164.4,69.1,341.6,32.3,512-4.9,22.7-28.1,36.2-50.6,30.2l-144.9-38.2c-22.5-5.9-35.8-29-31.2-51.8,24.4-121.4,16.5-247.1-23-364.5-7.4-22.1,2.9-46.6,24.5-55.3l138.9-56.1Z"/>
    </clipPath>
    <linearGradient id="linear-gradient4" x1="1858.9" y1="1142.7" x2="1644.4" y2="1142.7" gradientTransform="translate(79 2077.5) scale(1 -1)" gradientUnits="userSpaceOnUse">
      <stop offset=".2" stop-color="#f8e371"/>
      <stop offset="1" stop-color="#f8e371" stop-opacity=".5"/>
    </linearGradient>
    <clipPath id="clippath-6">
      <path class="st0" d="M1839.4,662.4c20.8-8.4,44.6,1.6,52.1,22.8,56.5,160.2,67.4,333.1,31.5,499.1-4.7,21.9-27.1,34.9-48.8,29.2l-141.3-37.3c-21.7-5.7-34.6-28-30.1-50,23.8-118.5,16.1-241.1-22.4-355.7-7.2-21.3,2.8-45,23.6-53.4l135.5-54.7h0Z"/>
    </clipPath>
    <clipPath id="clippath-7">
      <path class="st0" d="M1380.9,188.8c9.2-20.5,33.3-29.8,53.3-19.7,151.8,76.3,279.5,193.2,368.8,337.8,11.8,19.1,4.7,43.9-14.9,54.9l-127.6,71.1c-19.6,10.9-44.3,3.8-56.4-15.1-65-101.9-155.7-184.9-262.8-240.7-20-10.4-29.2-34.4-20-54.9l59.7-133.4h-.1Z"/>
    </clipPath>
    <clipPath id="clippath-8">
      <path class="st0" d="M1264.8,106.5c21.6,6.3,32.9,29.5,25.7,50.7l-47.1,138.4c-7.2,21.3-30.3,32.5-52,26.6-116.5-32-239.4-32.9-356.4-2.5-21.8,5.7-44.7-5.9-51.6-27.3l-45.1-139c-6.9-21.4,4.8-44.4,26.4-50.4,163.8-45.2,336.9-43.9,500.1,3.5h0Z"/>
    </clipPath>
    <clipPath id="clippath-9">
      <path class="st0" d="M127.9,1201.1c-22.2,4.5-44-9.9-47.5-32.3-26-168-4.9-339.9,61-496.6,8.8-20.9,33.4-29.6,53.9-19.9l132,62.6c20.5,9.7,29.1,34.2,20.6,55.2-45.2,112-60.2,233.9-43.4,353.5,3.1,22.5-11.1,44.1-33.4,48.6l-143.3,28.8h0Z"/>
    </clipPath>
  </defs>
  <g id="Layer_2">
    <rect class="st12" x="-1.7" y="-4.9" width="1999.5" height="1999.5"/>
  </g>
  <g id="gezond_x5F_Active" class="st21">
    <g>
      <g>
        <path class="st13" d="M127.8,1202c-22.3,4.5-44-9.9-47.5-32.4-26.1-168.1-4.9-340.2,61.1-497,8.8-20.9,33.4-29.6,53.9-19.9l132.1,62.7c20.5,9.7,29.1,34.2,20.6,55.3-45.2,112.1-60.2,234.1-43.5,353.8,3.1,22.5-11.1,44.2-33.4,48.6l-143.4,28.8Z" shape-rendering="crispEdges"/>
        <path class="st4" d="M143.2,673.4c8.3-19.8,31.7-28.1,51.2-18.8l132.1,62.7c19.5,9.2,27.7,32.5,19.6,52.7-45.4,112.4-60.4,234.8-43.6,354.9,3,21.5-10.7,42.1-31.8,46.3l-143.4,28.8c-21.2,4.3-41.8-9.4-45.1-30.7-26-167.7-4.9-339.4,60.9-495.9Z" shape-rendering="crispEdges"/>
      </g>
      <path class="st20" d="M92.2,830.8c.8.6,1.5,1.5,2,2.7l30.8,84.8c.6,1.7.4,3.6-.6,5.2l-50.2,75c-1,1.5-2.4,2.3-3.9,2.5,2-57.3,9.4-114.2,22-170.2Z"/>
    </g>
  </g>
  <g id="sociaal_x5F_Active" class="st21">
    <path class="st11" d="M235.9,579.2c-19.7-11.1-26.9-36.3-15.1-55.7,88.2-145.8,214.6-263.9,365.1-341.1,20.1-10.3,44.3-1,53.5,19.8l59.6,134c9.3,20.8,0,45.2-19.9,55.8-106.1,56.5-195.8,140.2-259.9,242.8-12.1,19.3-36.8,26.6-56.5,15.5l-126.9-71.2Z"/>
    <path class="st20" d="M448.2,271.2c.2,1,.2,2.2-.2,3.3l-30.9,84.8c-.6,1.7-2,3-3.8,3.6l-86.7,25.1c-1.8.5-3.4.2-4.6-.6,38.4-42.6,80.6-81.5,126.3-116.2Z"/>
  </g>
  <g id="ecologisch_x5F_Active" class="st21">
    <g>
      <path class="st8" d="M736.8,153.2c-7-21.6,4.8-44.9,26.7-50.9,163.9-45.2,337.3-44,500.6,3.5,21.8,6.3,33.3,29.8,26,51.3l-47.1,138.4c-7.3,21.5-30.6,32.9-52.5,26.9-116.5-32-239.4-32.9-356.3-2.5-22,5.7-45.1-6-52.1-27.6l-45.1-139.1Z"/>
      <path class="st5" d="M1263.5,107.7c20.6,6,31.6,28.2,24.6,48.6l-47.1,138.4c-6.9,20.4-29.1,31.3-50,25.5-116.9-32.1-240.1-33-357.4-2.5-21,5.5-43-5.7-49.7-26.2l-45.1-139.1c-6.7-20.5,4.6-42.6,25.3-48.3,163.6-45.1,336.5-43.9,499.4,3.5Z"/>
    </g>
    <path class="st20" d="M1083,73.7c-.5.9-1.3,1.7-2.4,2.3l-80.2,41.4c-1.6.8-3.6.9-5.2,0l-80.8-40.3c-1.6-.8-2.6-2.1-3-3.6,57.1-5.3,114.5-5.3,171.6,0Z"/>
  </g>
  <g id="digitaal_x5F_Active" class="st21">
    <g>
      <path class="st9" d="M1379.4,187.1c9.3-20.8,33.7-30.2,54.1-20,152.5,76.6,280.7,194,370.3,339.2,12,19.4,4.8,44.6-15.1,55.6l-128.1,71.4c-19.9,11.1-44.9,3.9-57.2-15.3-65.2-102.2-156.1-185.4-263.6-241.4-20.2-10.5-29.6-34.8-20.3-55.6l59.9-133.9Z"/>
      <path class="st3" d="M1381.3,188c8.8-19.8,32-28.6,51.3-19,152.1,76.4,280.1,193.6,369.5,338.4,11.3,18.3,4.5,42.2-14.4,52.8l-128.1,71.4c-18.9,10.5-42.7,3.7-54.4-14.6-65.4-102.5-156.6-186-264.4-242.2-19.3-10.1-28.2-33.2-19.3-52.9l59.9-133.9Z"/>
    </g>
    <path class="st20" d="M1716.1,385.6c-1,.3-2.1.4-3.3,0l-87.3-23c-1.8-.5-3.2-1.8-3.9-3.5l-32.9-84c-.7-1.7-.5-3.3.2-4.6,45.9,34.3,88.5,72.8,127.3,115.1Z"/>
  </g>
  <g id="leren_x5F_Active" class="st21">
    <g>
      <path class="st10" d="M1836.8,658.1c21.2-8.5,45.4,1.7,52.9,23.2,56.9,161.3,67.8,335.2,31.7,502.4-4.8,22.3-27.5,35.5-49.6,29.7l-142.2-37.5c-22.1-5.8-35.1-28.4-30.6-50.8,23.9-119.1,16.2-242.5-22.5-357.6-7.3-21.6,2.8-45.7,24-54.2l136.3-55Z"/>
      <path class="st6" d="M1837.5,660c20.1-8.1,43,1.6,50.2,22,56.7,160.9,67.7,334.5,31.6,501.2-4.6,21.1-26.1,33.6-47.1,28.1l-142.2-37.5c-20.9-5.5-33.4-27-29.1-48.4,24-119.5,16.2-243.2-22.6-358.7-6.9-20.7,2.7-43.6,22.8-51.7l136.3-55Z"/>
    </g>
    <path class="st20" d="M1941.5,1007.8c-1-.4-1.8-1.2-2.5-2.2l-47.3-76.8c-1-1.6-1.1-3.5-.4-5.2l34.1-83.6c.7-1.7,1.9-2.8,3.3-3.3,9.6,56.5,13.9,113.8,12.9,171.1Z"/>
  </g>
  <g id="Layer_1">
    <g id="Filter_x5F_Leren">
      <g>
        <g class="st17">
          <g>
            <polygon class="st2" points="1612.6 594.1 1613.4 594.1 1612.6 594.9 1612.6 594.1"/>
            <polygon class="st2" points="1611 592.5 1610.2 592.5 1611 591.7 1611 592.5"/>
          </g>
        </g>
        <path class="st2" d="M1839.4,662.4c20.8-8.4,44.6,1.6,52.1,22.8,56.5,160.2,67.4,333.1,31.5,499.1-4.7,21.9-27.1,34.9-48.8,29.2l-141.3-37.3c-21.7-5.7-34.6-28-30.1-50,23.8-118.5,16.1-241.1-22.4-355.7-7.2-21.3,2.8-45,23.6-53.4l135.5-54.7h0Z"/>
      </g>
    </g>
    <g id="Filter_x5F_Digitaal">
      <g>
        <g class="st16">
          <g>
            <polygon class="st2" points="1252.3 99.7 1253.1 99.7 1252.3 100.5 1252.3 99.7"/>
            <polygon class="st2" points="1250.7 98.1 1249.8 98.1 1250.7 97.2 1250.7 98.1"/>
          </g>
        </g>
        <path class="st2" d="M1380.9,188.8c9.2-20.5,33.3-29.8,53.3-19.7,151.8,76.3,279.5,193.2,368.8,337.8,11.8,19.1,4.7,43.9-14.9,54.9l-127.6,71.1c-19.6,10.9-44.3,3.8-56.4-15.1-65-101.9-155.7-184.9-262.8-240.7-20-10.4-29.2-34.4-20-54.9l59.7-133.4h-.1Z"/>
      </g>
    </g>
    <g id="Filtere_x5F_Ecologisch">
      <g>
        <g class="st19">
          <g>
            <polygon class="st2" points="671 4.7 671.8 4.7 671 5.5 671 4.7"/>
            <polygon class="st2" points="669.4 3 668.5 3 669.4 2.2 669.4 3"/>
          </g>
        </g>
        <path class="st2" d="M1264.8,106.5c21.6,6.3,32.9,29.5,25.7,50.7l-47.1,138.4c-7.2,21.3-30.3,32.5-52,26.6-116.5-32-239.4-32.9-356.4-2.5-21.8,5.7-44.7-5.9-51.6-27.3l-45.1-139c-6.9-21.4,4.8-44.4,26.4-50.4,163.8-45.2,336.9-43.9,500.1,3.5h0Z"/>
      </g>
    </g>
    <g id="Filter_x5F_Gezond">
      <g>
        <g class="st18">
          <g>
            <polygon class="st1" points="37.5 616.2 38.4 616.2 37.5 617.1 37.5 616.2"/>
            <polygon class="st1" points="35.9 614.6 35.1 614.6 35.9 613.8 35.9 614.6"/>
          </g>
        </g>
        <path class="st1" d="M127.9,1201.1c-22.2,4.5-44-9.9-47.5-32.3-26-168-4.9-339.9,61-496.6,8.8-20.9,33.4-29.6,53.9-19.9l132,62.6c20.5,9.7,29.1,34.2,20.6,55.2-45.2,112-60.2,233.9-43.4,353.5,3.1,22.5-11.1,44.1-33.4,48.6l-143.3,28.8h0Z"/>
      </g>
    </g>
    <g id="Filter_x5F_Social">
      <path class="st7" d="M235.2,578.3c-19.9-11-27.1-36-15.3-55.4,88.9-144.9,216.3-262.3,368-339,20.2-10.2,44.6-1,54,19.7l60.1,133.2c9.3,20.7,0,44.9-20,55.5-106.9,56.1-197.3,139.4-261.9,241.4-12.2,19.2-37.1,26.4-56.9,15.4l-127.9-70.8h0Z"/>
    </g>
    <g class="st14">
      <text class="st15" transform="translate(210.4 1050.1) rotate(-90)"><tspan x="0" y="0">Gezond</tspan></text>
    </g>
    <g class="st14">
      <text class="st15" transform="translate(865.3 208.2)"><tspan x="0" y="0">Ecologisch</tspan></text>
    </g>
    <g class="st14">
      <text class="st15" transform="translate(398.3 515.2) rotate(-45)"><tspan x="0" y="0">Sociaal</tspan></text>
    </g>
    <g class="st14">
      <text class="st15" transform="translate(1484.7 323) rotate(45)"><tspan x="0" y="0">Digitaal</tspan></text>
    </g>
    <g class="st14">
      <text class="st15" transform="translate(1810.9 857.9) rotate(90)"><tspan x="0" y="0">Leren</tspan></text>
    </g>
  </g>
</svg>